<?xml version="1.0" encoding="iso-8859-1"?>
<!-- Generator: Adobe Illustrator 19.0.0, SVG Export Plug-In . SVG Version: 6.00 Build 0)  -->
<svg version="1.1" id="Layer_1" xmlns="http://www.w3.org/2000/svg" xmlns:xlink="http://www.w3.org/1999/xlink" x="0px" y="0px"
	 viewBox="0 0 512 512" style="enable-background:new 0 0 512 512;" xml:space="preserve">
<path style="fill:#FFCC4D;" d="M484.447,500.696c-9.467-78.401-58.163-135.3-115.785-135.3c-15.721,0-30.773,4.243-44.55,11.994
	c26.726,27.323,45.948,70.549,51.609,121.92c0.328,2.985-0.52,5.986-2.335,8.239c-1.813,2.251-4.417,3.541-7.154,3.541H475.27
	c2.647,0,5.166-1.137,6.92-3.124C483.943,505.978,484.766,503.33,484.447,500.696z"/>
<path style="fill:#F4D1B0;" d="M368.664,373.042c-13.623,0-26.702-2.262-38.876-6.413v9.867c0,2.758,1.614,6.586,3.587,8.511
	l31.701,30.897c1.973,1.922,5.202,1.922,7.173-0.002l31.7-30.895c1.972-1.925,3.586-5.753,3.586-8.511v-9.864
	C395.362,370.779,382.284,373.042,368.664,373.042z"/>
<path style="fill:#FFFFFF;" d="M512,285.055c0,8.271-6.759,15.037-15.02,15.037h-16.239c-8.26,0-15.02-6.766-15.02-15.037v-41.479
	c0-8.272,6.76-15.039,15.02-15.039h16.239c8.261,0,15.02,6.767,15.02,15.039V285.055z"/>
<g>
	<path style="fill:#F4D1B0;" d="M512,285.055c0,8.271-6.759,15.037-15.02,15.037h-16.239c-8.26,0-15.02-6.766-15.02-15.037v-41.479
		c0-8.272,6.76-15.039,15.02-15.039h16.239c8.261,0,15.02,6.767,15.02,15.039V285.055z"/>
	<path style="fill:#F4D1B0;" d="M379.225,169.791l0.002,66.837c0,55.537-38.882,102.383-91.506,116.057
		c21.125,19.469,49.605,31.406,80.944,31.406c65.148,0,117.961-51.579,117.961-115.205v-99.095H379.225z"/>
</g>
<path style="fill:#845932;" d="M368.662,60.872c-4.239,0-8.423,0.224-12.547,0.649c14.536,19.71,23.107,43.864,23.107,69.936
	l0.002,47.985h71.989l35.411,73.073v-76.439C486.624,112.449,433.81,60.872,368.662,60.872z"/>
<path style="opacity:0.1;enable-background:new    ;" d="M311.539,343.817c-7.531,3.722-15.503,6.707-23.819,8.868
	c21.125,19.469,49.605,31.406,80.944,31.406c5.509,0,10.927-0.377,16.234-1.091C355.663,379.07,329.851,364.675,311.539,343.817z"/>
<path style="fill:#54DEE2;" d="M249.947,511.089c2.644,0,5.165-1.137,6.917-3.124c1.756-1.986,2.579-4.635,2.26-7.269
	c-9.468-78.401-58.163-135.3-115.787-135.3c-57.621,0-106.318,56.899-115.785,135.3c-0.32,2.634,0.503,5.283,2.257,7.269
	c1.754,1.987,4.273,3.124,6.92,3.124H249.947z"/>
<path style="opacity:0.1;enable-background:new    ;" d="M64.129,507.965c-1.755-1.986-2.578-4.635-2.259-7.269
	c8.511-70.48,48.727-123.574,98.628-133.585c-5.608-1.125-11.338-1.716-17.159-1.716c-57.621,0-106.318,56.899-115.785,135.3
	c-0.32,2.634,0.503,5.283,2.257,7.269c1.754,1.987,4.273,3.124,6.92,3.124h34.317C68.401,511.089,65.882,509.952,64.129,507.965z"/>
<path style="fill:#F4D1B0;" d="M143.336,373.042c13.622,0,26.702-2.262,38.876-6.413v9.867c0,2.758-1.614,6.586-3.587,8.511
	l-31.701,30.897c-1.973,1.922-5.2,1.922-7.173-0.002l-31.7-30.895c-1.972-1.925-3.586-5.753-3.586-8.511v-9.864
	C116.638,370.779,129.716,373.042,143.336,373.042z"/>
<path style="fill:#FFFFFF;" d="M0,285.055c0,8.271,6.759,15.037,15.02,15.037h16.239c8.26,0,15.02-6.766,15.02-15.037v-41.479
	c0-8.272-6.76-15.039-15.02-15.039H15.02c-8.261,0-15.02,6.766-15.02,15.038V285.055z"/>
<g>
	<path style="fill:#F4D1B0;" d="M0,285.055c0,8.271,6.759,15.037,15.02,15.037h16.239c8.26,0,15.02-6.766,15.02-15.037v-41.479
		c0-8.272-6.76-15.039-15.02-15.039H15.02c-8.261,0-15.02,6.766-15.02,15.038V285.055z"/>
	<path style="fill:#F4D1B0;" d="M132.775,236.628v-66.837h-107.4v99.095c0,63.626,52.812,115.205,117.961,115.205
		c31.339,0,59.819-11.939,80.945-31.408C171.657,339.008,132.775,292.163,132.775,236.628z"/>
</g>
<path style="opacity:0.1;enable-background:new    ;" d="M58.514,268.886v-99.095H25.375v99.095
	c0,63.626,52.812,115.205,117.961,115.205c5.815,0,11.529-0.419,17.12-1.212C103.422,374.781,58.514,326.832,58.514,268.886z"/>
<path style="fill:#845932;" d="M132.775,131.457c0-26.071,8.572-50.225,23.108-69.936c-4.122-0.425-8.308-0.649-12.547-0.649
	c-65.147,0-117.961,51.577-117.961,115.202v76.439l35.411-73.073h71.988v-47.984H132.775z"/>
<path style="opacity:0.1;enable-background:new    ;" d="M58.514,176.074c0-56.457,41.588-103.424,96.474-113.29
	c0.301-0.419,0.588-0.848,0.894-1.263c-4.122-0.425-8.308-0.649-12.547-0.649c-65.147,0-117.961,51.577-117.961,115.202v76.439
	l33.139-68.382V176.074z"/>
<path style="fill:#81D45E;" d="M135.195,511.089c-2.997,0-5.852-1.289-7.84-3.541c-1.989-2.252-2.92-5.253-2.56-8.239
	c10.728-88.84,65.91-153.321,131.206-153.321c65.297,0,120.479,64.48,131.206,153.321c0.36,2.985-0.571,5.986-2.559,8.239
	c-1.987,2.251-4.842,3.541-7.841,3.541H135.195z"/>
<path style="opacity:0.1;enable-background:new    ;" d="M161.284,507.548c-1.99-2.252-2.923-5.253-2.56-8.239
	c9.784-81.029,56.551-141.782,114.242-151.841c-5.561-0.971-11.222-1.479-16.964-1.479c-65.296,0-120.479,64.48-131.206,153.321
	c-0.36,2.985,0.571,5.986,2.56,8.239c1.986,2.251,4.843,3.541,7.84,3.541h33.929C166.126,511.089,163.271,509.8,161.284,507.548z"/>
<g>
	<path style="fill:#FFDFC2;" d="M146.014,254.95c0,9.373-7.659,17.041-17.021,17.041h-18.401c-9.361,0-17.021-7.669-17.021-17.041
		v-47.005c0-9.374,7.66-17.04,17.021-17.04h18.401c9.362,0,17.021,7.666,17.021,17.04V254.95z"/>
	<path style="fill:#FFDFC2;" d="M256.003,355.545c-15.436,0-30.258-2.564-44.053-7.265v10.291c0,3.124,1.83,7.465,4.065,9.643
		l35.923,35.013c2.236,2.178,5.895,2.178,8.129-0.002l35.921-35.011c2.235-2.179,4.065-6.518,4.065-9.643v-10.29
		C286.257,352.981,271.437,355.545,256.003,355.545z"/>
</g>
<path style="fill:#FFFFFF;" d="M418.43,254.95c0,9.373-7.66,17.041-17.022,17.041h-18.401c-9.36,0-17.021-7.669-17.021-17.041
	v-47.005c0-9.374,7.661-17.04,17.021-17.04h18.401c9.362,0,17.022,7.666,17.022,17.04V254.95z"/>
<g>
	<path style="fill:#FFDFC2;" d="M418.43,254.95c0,9.373-7.66,17.041-17.022,17.041h-18.401c-9.36,0-17.021-7.669-17.021-17.041
		v-47.005c0-9.374,7.661-17.04,17.021-17.04h18.401c9.362,0,17.022,7.666,17.022,17.04V254.95z"/>
	<path style="fill:#FFDFC2;" d="M366.541,124.336H145.462l-23.136,47.74v64.551c0,72.1,59.85,130.547,133.677,130.547
		c73.824,0,133.673-58.447,133.673-130.547v-64.546L366.541,124.336z"/>
</g>
<path style="opacity:0.1;enable-background:new    ;" d="M156.459,236.628V124.336h-10.997l-23.136,47.74v64.551
	c0,72.1,59.85,130.547,133.677,130.547c5.782,0,11.477-0.359,17.066-1.055C207.301,357.936,156.459,303.082,156.459,236.628z"/>
<path style="fill:#AF7F4D;" d="M162.454,135.271h187.094l40.123,82.805v-86.619c0-72.099-59.845-130.547-133.67-130.547
	c-73.827,0-133.676,58.447-133.676,130.547v86.619L162.454,135.271z"/>
<g style="opacity:0.1;">
	<path d="M156.459,131.457c0-66.452,50.841-121.308,116.608-129.493c-5.588-0.695-11.284-1.054-17.065-1.054
		c-73.827,0-133.676,58.447-133.676,130.547v86.619l34.133-70.433V131.457z"/>
</g>
<g>
	<path style="fill:#845932;" d="M299.599,96.144l-39.127,39.127h22.496l27.88-27.88c3.105-3.106,3.105-8.141,0-11.248
		C307.741,93.039,302.706,93.039,299.599,96.144z"/>
	<path style="fill:#845932;" d="M251.469,86.3l-48.972,48.971h22.496l37.725-37.725c3.105-3.106,3.105-8.141,0-11.247
		C259.61,83.194,254.577,83.194,251.469,86.3z"/>
	<path style="fill:#845932;" d="M189.123,223.946c-4.393,0-7.952,3.56-7.952,7.953v23.923c0,4.393,3.559,7.953,7.952,7.953
		s7.953-3.56,7.953-7.953v-23.923C197.076,227.506,193.516,223.946,189.123,223.946z"/>
	<path style="fill:#845932;" d="M322.879,223.946c-4.393,0-7.953,3.56-7.953,7.953v23.923c0,4.393,3.56,7.953,7.953,7.953
		s7.952-3.56,7.952-7.953v-23.923C330.83,227.506,327.271,223.946,322.879,223.946z"/>
	<path style="fill:#845932;" d="M262.828,325.407h-13.653c-17.183,0-31.164-13.81-31.164-30.787c0-4.393,3.56-7.953,7.953-7.953
		s7.952,3.56,7.952,7.953c0,8.206,6.846,14.881,15.26,14.881h13.653c8.415,0,15.26-6.677,15.26-14.881
		c0-4.393,3.56-7.953,7.952-7.953c4.393,0,7.953,3.56,7.953,7.953C293.993,311.596,280.013,325.407,262.828,325.407z"/>
	<path style="fill:#845932;" d="M262.424,270.507h-12.847c-4.393,0-7.953-3.56-7.953-7.952v-26.864c0-4.393,3.56-7.953,7.953-7.953
		s7.953,3.56,7.953,7.953v18.912h4.894c4.392,0,7.953,3.56,7.953,7.953C270.378,266.947,266.817,270.507,262.424,270.507z"/>
</g>
<g>
</g>
<g>
</g>
<g>
</g>
<g>
</g>
<g>
</g>
<g>
</g>
<g>
</g>
<g>
</g>
<g>
</g>
<g>
</g>
<g>
</g>
<g>
</g>
<g>
</g>
<g>
</g>
<g>
</g>
</svg>
