<?xml version="1.0" encoding="iso-8859-1"?>
<!-- Generator: Adobe Illustrator 19.0.0, SVG Export Plug-In . SVG Version: 6.00 Build 0)  -->
<svg version="1.1" id="Layer_1" xmlns="http://www.w3.org/2000/svg" xmlns:xlink="http://www.w3.org/1999/xlink" x="0px" y="0px"
	 viewBox="0 0 512 512" style="enable-background:new 0 0 512 512;" xml:space="preserve">
<path style="fill:#F16A5D;" d="M409.586,477.314v-79.703c0-16.366-13.604-29.753-30.232-29.753H60.936
	c-16.627,0-30.23,13.386-30.23,29.753v79.703L409.586,477.314L409.586,477.314z"/>
<path style="opacity:0.1;enable-background:new    ;" d="M94.368,367.857H60.936c-16.627,0-30.23,13.386-30.23,29.753v79.703h33.432
	v-79.703C64.138,381.244,77.739,367.857,94.368,367.857z"/>
<g>
	<path style="fill:#F4D1B0;" d="M220.146,336.572c-14.663,0-28.741-2.433-41.844-6.893v35.396c0,2.964,1.738,7.081,3.862,9.15
		l34.121,33.218c2.123,2.068,5.6,2.068,7.723-0.001l34.119-33.217c2.124-2.069,3.862-6.186,3.862-9.15v-35.396
		C248.886,334.141,234.807,336.572,220.146,336.572z"/>
	<path style="fill:#F4D1B0;" d="M115.671,241.028c0,8.893-7.276,16.169-16.169,16.169H82.026c-8.892,0-16.169-7.276-16.169-16.169
		V196.43c0-8.893,7.276-16.169,16.169-16.169h17.478c8.893,0,16.169,7.276,16.169,16.169v44.597H115.671z"/>
	<path style="fill:#F4D1B0;" d="M374.435,241.028c0,8.893-7.276,16.169-16.169,16.169h-17.478c-8.892,0-16.169-7.276-16.169-16.169
		V196.43c0-8.893,7.276-16.169,16.169-16.169h17.478c8.892,0,16.169,7.276,16.169,16.169V241.028z"/>
</g>
<path style="fill:#FFDFC2;" d="M327.875,122.253h-215.46l-19.244,39.666v61.724c0,68.405,56.849,123.859,126.976,123.859
	c70.124,0,126.973-55.454,126.973-123.859v-61.726L327.875,122.253z"/>
<path style="opacity:0.1;enable-background:new    ;" d="M126.655,223.644V122.253h-14.241L93.17,161.919v61.724
	c0,68.405,56.849,123.859,126.976,123.859c5.676,0,11.263-0.368,16.741-1.073C174.676,338.436,126.655,286.512,126.655,223.644z"/>
<path style="fill:#AF7F4D;" d="M131.287,127.479h177.716l38.116,78.564V123.86C347.119,55.453,290.271,0,220.146,0
	C150.019,0,93.171,55.453,93.171,123.859v82.182L131.287,127.479z"/>
<path style="opacity:0.1;enable-background:new    ;" d="M126.655,123.859c0-62.868,48.019-114.791,110.233-122.787
	C231.409,0.368,225.822,0,220.146,0C150.019,0,93.171,55.453,93.171,123.859v82.182l33.484-69.017V123.859z"/>
<g>
	<path style="fill:#845932;" d="M156.62,249.692c-4.328,0-7.837-3.508-7.837-7.837v-22.698c0-4.329,3.509-7.837,7.837-7.837
		c4.328,0,7.837,3.508,7.837,7.837v22.698C164.456,246.183,160.948,249.692,156.62,249.692z"/>
	<path style="fill:#845932;" d="M283.671,249.692c-4.328,0-7.837-3.508-7.837-7.837v-22.698c0-4.329,3.509-7.837,7.837-7.837
		c4.328,0,7.837,3.508,7.837,7.837v22.698C291.508,246.183,287.999,249.692,283.671,249.692z"/>
	<path style="fill:#845932;" d="M226.631,308.165h-12.968c-16.478,0-29.885-13.234-29.885-29.501c0-4.328,3.509-7.837,7.837-7.837
		c4.328,0,7.837,3.509,7.837,7.837c0,7.625,6.376,13.827,14.212,13.827h12.968c7.837,0,14.212-6.203,14.212-13.827
		c0-4.328,3.509-7.837,7.837-7.837c4.328,0,7.837,3.509,7.837,7.837C256.516,294.932,243.109,308.165,226.631,308.165z"/>
	<path style="fill:#845932;" d="M230.129,256.078h-12.202c-4.328,0-7.837-3.508-7.837-7.837v-25.489
		c0-4.329,3.509-7.837,7.837-7.837c4.328,0,7.837,3.508,7.837,7.837v17.653h4.366c4.328,0,7.837,3.508,7.837,7.837
		C237.966,252.571,234.457,256.078,230.129,256.078z"/>
</g>
<ellipse style="fill:#3ABA68;" cx="385.027" cy="415.817" rx="96.266" ry="96.183"/>
<path style="opacity:0.1;enable-background:new    ;" d="M313.132,415.822c0-48.976,36.641-89.4,84.034-95.406
	c-3.976-0.501-8.023-0.77-12.133-0.77c-53.171,0-96.272,43.058-96.272,96.177c0,53.116,43.102,96.178,96.272,96.178
	c4.111,0,8.158-0.271,12.133-0.77C349.773,505.224,313.132,464.798,313.132,415.822z"/>
<path style="fill:#FFFFFF;" d="M436.573,404.333c0-2.987-2.444-5.43-5.431-5.43h-23.739c-2.989,0-5.433-2.442-5.433-5.427v-23.717
	c0-2.986-2.446-5.429-5.436-5.429h-23.004c-2.989,0-5.437,2.443-5.437,5.429v23.716c0,2.985-2.442,5.427-5.431,5.427h-23.739
	c-2.989,0-5.433,2.443-5.433,5.43v22.981c0,2.985,2.444,5.428,5.433,5.428h23.739c2.989,0,5.431,2.443,5.431,5.428v23.716
	c0,2.985,2.446,5.428,5.437,5.428h23.004c2.989,0,5.436-2.443,5.436-5.428V438.17c0-2.986,2.444-5.428,5.433-5.428h23.739
	c2.987,0,5.431-2.443,5.431-5.428V404.333z"/>
<g>
	<path style="fill:#845932;" d="M258.007,88.775l-38.705,38.704h22.166l27.621-27.621c3.06-3.062,3.06-8.023,0-11.083
		C266.03,85.716,261.068,85.714,258.007,88.775z"/>
	<path style="fill:#845932;" d="M210.579,79.073l-48.406,48.406h22.166l37.322-37.323c3.061-3.062,3.061-8.023,0-11.083
		C218.602,76.013,213.64,76.013,210.579,79.073z"/>
</g>
<g>
</g>
<g>
</g>
<g>
</g>
<g>
</g>
<g>
</g>
<g>
</g>
<g>
</g>
<g>
</g>
<g>
</g>
<g>
</g>
<g>
</g>
<g>
</g>
<g>
</g>
<g>
</g>
<g>
</g>
</svg>
